 <svg
        width="33"
        height="20"
        viewBox="0 0 30 20"
        fill="none"
        xmlns="http://www.w3.org/2000/svg"
      >
        <path
          d="M3.07629 19.3838C1.24552 18.3184 0.117249 16.3429 0.117249 14.2121V4.41909C0.117249 4.25682 0.294648 4.15098 0.436569 4.23565L2.71439 5.56208C3.76461 6.16886 4.41035 7.29774 4.41035 8.51834V19.793C4.41035 19.9553 4.23295 20.0611 4.09103 19.9765L3.07629 19.3909V19.3838Z"
          fill="#FA374A"
        ></path>
        <path
          d="M1.49388 1.38522L2.50861 0.799616C4.33938 -0.265765 6.59592 -0.265765 8.43379 0.799616L16.8497 5.69613C16.9916 5.7808 16.9916 5.98541 16.8497 6.06302L14.5719 7.38946C13.5216 7.99623 12.2373 7.99623 11.1871 7.38946L1.50097 1.75211C1.35905 1.66744 1.35905 1.46283 1.50097 1.38522H1.49388Z"
          fill="#FA374A"
        ></path>
        <path
          d="M7.90159 14.3603L17.8999 8.53951C18.0418 8.45485 18.2192 8.56068 18.2192 8.72295V9.90122C18.2192 12.032 17.0909 14.0075 15.2602 15.0729L12.6914 16.5687C12.1876 16.865 11.5702 16.865 11.0664 16.5687L7.90869 14.7272C7.76677 14.6425 7.76677 14.4379 7.90869 14.3603H7.90159Z"
          fill="#FA374A"
        ></path>
      </svg>